<?xml version="1.0"?>
<svg xmlns="http://www.w3.org/2000/svg" xmlns:xlink="http://www.w3.org/1999/xlink" xmlns:svgjs="http://svgjs.com/svgjs" version="1.1" width="512" height="512" x="0" y="0" viewBox="0 0 512 512" style="enable-background:new 0 0 512 512" xml:space="preserve" class=""><rect width="512" height="512" fill="#236aa4" shape="square"/><g transform="matrix(0.7,0,0,0.7,76.80000000000001,76.80100879669192)"><path xmlns="http://www.w3.org/2000/svg" d="m344 104c-.34 0-.68.01-1.02.02a31.649 31.649 0 0 0 1.02-8.02 32.008 32.008 0 0 0 -62.82-8.66 48.117 48.117 0 0 0 -49.19-22.68c.01-.22.01-.44.01-.66a40 40 0 0 0 -79.36-7.12 40.006 40.006 0 0 0 -72.4 27.552 32 32 0 1 0 -32.24 55.276v60.292h312v-54.12a23.994 23.994 0 0 0 -16-41.88z" fill="#fde575" data-original="#fde575" style="" class=""/><path xmlns="http://www.w3.org/2000/svg" d="m344 424h-288l-16-248h320z" fill="#459dda" data-original="#2b70a8" style="" class=""/><g xmlns="http://www.w3.org/2000/svg" fill="#ce3536"><path d="m104 176v248h-48l-16-248z" fill="#ce3536" data-original="#ce3536" style="" class=""/><path d="m168 176h64v248h-64z" fill="#ce3536" data-original="#ce3536" style="" class=""/><path d="m344 424h-48v-248h64z" fill="#ce3536" data-original="#ce3536" style="" class=""/></g><path xmlns="http://www.w3.org/2000/svg" d="m40 168h320a16 16 0 0 1 16 16v16a0 0 0 0 1 0 0h-352a0 0 0 0 1 0 0v-16a16 16 0 0 1 16-16z" fill="#a52b2b" data-original="#a52b2b" style="" class=""/><path xmlns="http://www.w3.org/2000/svg" d="m488 376v96a16 16 0 0 1 -16 16h-136l-16-32-16 32h-136a16 16 0 0 1 -16-16v-96a16 16 0 0 1 16-16h136l16 32 16-32h136a16 16 0 0 1 16 16z" fill="#fae8d8" data-original="#fae8d8" style="" class=""/><path xmlns="http://www.w3.org/2000/svg" d="m184 392h96v64h-96z" fill="#459dda" data-original="#2b70a8" style="" class=""/><path xmlns="http://www.w3.org/2000/svg" d="m360 392h96v64h-96z" fill="#ce3536" data-original="#ce3536" style="" class=""/><path xmlns="http://www.w3.org/2000/svg" d="m224 136a32.036 32.036 0 0 1 -32-32 8 8 0 0 1 16 0 16 16 0 0 0 32 0 8 8 0 0 1 16 0 32.036 32.036 0 0 1 -32 32z" fill="#fcb442" data-original="#fcb442" style="" class=""/><path xmlns="http://www.w3.org/2000/svg" d="m128 144a8 8 0 0 1 0-16 16 16 0 0 0 0-32 8 8 0 0 1 0-16 32 32 0 0 1 0 64z" fill="#fcb442" data-original="#fcb442" style="" class=""/></g></svg>
